<?xml version="1.0" encoding="utf-8"?>
<!-- Generator: Adobe Illustrator 26.0.2, SVG Export Plug-In . SVG Version: 6.00 Build 0)  -->
<svg version="1.1" id="레이어_1" xmlns="http://www.w3.org/2000/svg" xmlns:xlink="http://www.w3.org/1999/xlink" x="0px"
	 y="0px" viewBox="0 0 30 30" style="enable-background:new 0 0 30 30;" xml:space="preserve">
<style type="text/css">
	.st0{fill:#FFFFFF;}
</style>
<g>
	<g>
		<rect x="27" class="st0" width="3" height="13"/>
		<rect x="22" y="-5" transform="matrix(6.123234e-17 -1 1 6.123234e-17 22 25)" class="st0" width="3" height="13"/>
		
			<rect x="21.25" y="-0.17" transform="matrix(-0.7071 -0.7071 0.7071 -0.7071 33.7102 28.4632)" class="st0" width="3" height="14.85"/>
	</g>
	<g>
		<rect x="0" y="17" transform="matrix(-1 -1.224647e-16 1.224647e-16 -1 3 47)" class="st0" width="3" height="13"/>
		<rect x="5" y="22" transform="matrix(-1.836970e-16 1 -1 -1.836970e-16 35 22)" class="st0" width="3" height="13"/>
		
			<rect x="5.75" y="15.33" transform="matrix(0.7071 0.7071 -0.7071 0.7071 18.2101 1.5368)" class="st0" width="3" height="14.85"/>
	</g>
</g>
</svg>
