<?xml version="1.0" encoding="utf-8"?>
<!-- Generator: Adobe Illustrator 26.0.2, SVG Export Plug-In . SVG Version: 6.00 Build 0)  -->
<svg version="1.1" id="레이어_1" xmlns="http://www.w3.org/2000/svg" xmlns:xlink="http://www.w3.org/1999/xlink" x="0px"
	 y="0px" viewBox="0 0 28 25" style="enable-background:new 0 0 28 25;" xml:space="preserve">
<style type="text/css">
	.st0{fill:#FFFFFF;}
</style>
<g>
	<path class="st0" d="M14.29,0.24L6.82,6.65H0v11.7h6.82l7.47,6.41c0.63,0.54,1.63,0.1,1.63-0.72V0.96
		C15.91,0.14,14.92-0.3,14.29,0.24z"/>
	<path class="st0" d="M22.87,22.5c-0.25,0-0.51-0.1-0.7-0.29c-0.39-0.38-0.39-1,0-1.38c8.51-8.35,0.33-17.05-0.02-17.42
		c-0.38-0.39-0.36-1.01,0.04-1.38c0.4-0.37,1.03-0.35,1.4,0.04c0.1,0.1,9.87,10.44-0.02,20.14C23.38,22.41,23.13,22.5,22.87,22.5z"
		/>
	<path class="st0" d="M20.05,17.25c-0.25,0-0.51-0.1-0.7-0.29c-0.39-0.38-0.39-1,0-1.38c3.3-3.24,0.33-6.54-0.02-6.91
		c-0.37-0.39-0.36-1.01,0.04-1.38c0.4-0.37,1.03-0.35,1.4,0.04c1.65,1.71,3.77,5.91-0.02,9.63C20.56,17.15,20.31,17.25,20.05,17.25z
		"/>
</g>
</svg>
